# xmcd
#
# Track frame offsets:
#	150
#	10295
#	19900
#	25975
#	40237
#	49350
#	60090
#	73812
#	88450
#	100800
#	109387
#	123825
#	136215
#	145990
#	154100
#	166525
#	180115
#	197675
#	208932
#	219537
#	234262
#	238920
#	253437
#	263612
#	276462
#
# Disc length: 3797 seconds
#
# Revision: 2
# Processed by: cddbd v1.4PL0 Copyright (c) Steve Scherf et al.
# Submitted via: CDmax 1.9
#
DISCID=6e0ed319
DTITLE=Various Caribbean Artists - Mento Merengue Meringue
DYEAR=1900
DGENRE=
TTITLE0=Merengue Quartet (Dominican Republic) - Ramon Madora (mangulina)
TTITLE1=Radley Gourzong and Group (Grand Cayman) - Untitled Polka
TTITLE2=Wench, Charles and Group (Jamaica) - Linstead Market
TTITLE3=Merengue Quartet (Dominican Republic) - Ahe Eha (Salve)
TTITLE4=Radley Gourzong and Group (Grand Cayman) - Arise and Open the Door
TTITLE5=Wench, Charles and Group (Jamaica) - Imo Gal
TTITLE6=Orchestre Jazz Corondo - Josephine (meringue)
TTITLE7=Merengue Trio (Dominican Republic) - Cucu (Compa')
TTITLE8=Radley Gourzong and Group (Grand Cayman) - Clara My Girl You Think Yours
TTITLE8=elf Proud
TTITLE9=Wench, Charles and Group (Jamaica) - I Want Somebody
TTITLE10=Orchestre Jazz Corondo - Solange (contredanse)
TTITLE11=Merengue Trio (Dominican Republic) - Chucuchucu (meringue)
TTITLE12=Radley Gourzong and Group (Grand Cayman) - See How the Bullfrog Jump (m
TTITLE12=ento)
TTITLE13=Wench, Charles and Group (Jamaica) - Untitled Mazurka Polka
TTITLE14=Orchestre Jazz Corondo - Tempete
TTITLE15=Merengue Trio (Dominican Republic) - Juanita Morel (merenge)
TTITLE16=Radley Gourzong and Group (Grand Cayman) - Swing Waltz
TTITLE17=Wench, Charles and Group (Jamaica) - Wheel and Turn Me
TTITLE18=Merengue Trio (Dominican Republic) - Bonye
TTITLE19=Orchestre Jazz Corondo - Tu Nous As Parle (meringue)
TTITLE20=Wench, Charles and Group (Jamaica) - Mento Meringue
TTITLE21=Radley Gourzong and Group (Grand Cayman) - Take Him Out
TTITLE22=Merengue Trio (Dominican Republic) - La Mumdora
TTITLE23=Radley Gourzong and Group (Grand Cayman) - I Never Born Here, I Come Fr
TTITLE23=om Yonder
TTITLE24=Wench, Charles and Group (Jamaica) - The More We Are Together
EXTD=
EXTT0=
EXTT1=
EXTT2=
EXTT3=
EXTT4=
EXTT5=
EXTT6=
EXTT7=
EXTT8=
EXTT9=
EXTT10=
EXTT11=
EXTT12=
EXTT13=
EXTT14=
EXTT15=
EXTT16=
EXTT17=
EXTT18=
EXTT19=
EXTT20=
EXTT21=
EXTT22=
EXTT23=
EXTT24=
PLAYORDER=
